<svg viewBox="0 0 24 24" fill="none" xmlns="http://www.w3.org/2000/svg" aria-hidden="true" width="1em" height="1em">
    <path opacity=".1"
        d="M17.828 6.828c.579.578.867.868 1.02 1.235.152.368.152.776.152 1.594V17c0 1.886 0 2.828-.586 3.414C17.828 21 16.886 21 15 21H9c-1.886 0-2.828 0-3.414-.586C5 19.828 5 18.886 5 17V7c0-1.886 0-2.828.586-3.414C6.172 3 7.114 3 9 3h3.343c.818 0 1.226 0 1.594.152.368.152.657.442 1.235 1.02l2.656 2.656Z"
        fill="currentColor" />
    <path
        d="M17.828 6.828c.579.578.867.868 1.02 1.235.152.368.152.776.152 1.594V17c0 1.886 0 2.828-.586 3.414C17.828 21 16.886 21 15 21H9c-1.886 0-2.828 0-3.414-.586C5 19.828 5 18.886 5 17V7c0-1.886 0-2.828.586-3.414C6.172 3 7.114 3 9 3h3.343c.818 0 1.226 0 1.594.152.368.152.657.442 1.235 1.02l2.656 2.656Z"
        stroke="currentColor" stroke-width="2" stroke-linejoin="round" />
    <path d="M12 16v-5M9.5 14l2 2v0a.707.707 0 0 0 1 0v0l2-2" stroke="currentColor" stroke-width="2"
        stroke-linecap="round" stroke-linejoin="round" />
</svg>